<?xml version="1.0" encoding="UTF-8" standalone="no"?>
<!DOCTYPE svg PUBLIC "-//W3C//DTD SVG 1.1//EN" "http://www.w3.org/Graphics/SVG/1.1/DTD/svg11.dtd">
<svg width="100%" height="100%" viewBox="0 0 45 41" version="1.1" xmlns="http://www.w3.org/2000/svg" xmlns:xlink="http://www.w3.org/1999/xlink" xml:space="preserve" style="fill-rule:evenodd;clip-rule:evenodd;stroke-linejoin:round;stroke-miterlimit:1.41421;">
    <g id="Artboard1" transform="matrix(0.921448,0,0,0.93588,-0.195174,-0.139836)">
        <rect x="0.212" y="0.149" width="48.833" height="43.657" style="fill:none;"/>
        <clipPath id="_clip1">
            <rect x="0.212" y="0.149" width="48.833" height="43.657"/>
        </clipPath>
        <g clip-path="url(#_clip1)">
            <g transform="matrix(1.08525,0,0,1.06851,-0.8847,-1.39171)">
                <path d="M1.7,22.2C-1.3,28.2 7,39.3 9.3,42.2L9.3,36.7C9.3,36 9.3,29.2 9.7,21.8C9.9,18.9 10.1,16.2 10.4,13.9C5.9,16.8 2.9,19.7 1.7,22.2Z" style="fill:rgb(118,194,114);fill-rule:nonzero;"/>
                <path d="M15.9,3.4C12.4,7.8 12,29.3 12,35.2L13.1,33C14.1,30.8 23.4,11.8 30.5,3.7C26,2.1 18.6,0.1 15.9,3.4Z" style="fill:rgb(1,77,112);fill-rule:nonzero;"/>
                <path d="M21.7,33.1C25.2,33.9 38.2,36.8 47.6,37.4L47.6,17.6L21.7,33.1Z" style="fill:rgb(35,143,202);fill-rule:nonzero;"/>
                <path d="M43.4,5C40.3,2.4 37.7,1.6 35.6,2.7C29.9,5.7 18.7,27.9 16.1,33.1L24.9,28L47.6,14.5L47.6,9.5C46.4,8 45,6.4 43.4,5Z" style="fill:rgb(33,40,51);fill-rule:nonzero;"/>
            </g>
        </g>
    </g>
</svg>
